<svg width="100" height="65" viewBox="0 0 100 65" fill="none" xmlns="http://www.w3.org/2000/svg">
<path fill-rule="evenodd" clip-rule="evenodd" d="M0 0H7.79576V26.0692C11.2351 23.3856 15.5649 21.7862 20.269 21.7862C27.4902 21.7862 33.8295 25.5553 37.4196 31.2299C41.0098 25.5553 47.349 21.7862 54.5703 21.7862C60.0164 21.7862 64.9608 23.93 68.6027 27.4182V0H76.3984V35.9363L94.5041 17.8654L100 23.3728L81.9053 41.4327L100 59.4926L94.5041 65L76.3984 46.9291V62.2463H68.6027V56.6143C64.9608 60.1025 60.0164 62.2463 54.5703 62.2463C47.349 62.2463 41.0098 58.4772 37.4196 52.8026C33.8295 58.4772 27.4902 62.2463 20.269 62.2463C15.5649 62.2463 11.2351 60.6469 7.79576 57.9633V62.2463H0V42.0162V0ZM20.269 29.567C13.5687 29.567 8.12325 34.8181 7.79576 41.3891V42.6434C8.12325 49.2144 13.5687 54.4655 20.269 54.4655C27.181 54.4655 32.7578 48.8771 32.7578 42.0162C32.7578 35.1554 27.181 29.567 20.269 29.567ZM67.0591 42.0162C67.0591 48.8771 61.4823 54.4655 54.5703 54.4655C47.6582 54.4655 42.0815 48.8771 42.0815 42.0162C42.0815 35.1554 47.6582 29.567 54.5703 29.567C61.4823 29.567 67.0591 35.1554 67.0591 42.0162Z" fill="#26E5FF"/>
</svg>
